<svg width="20" height="12" viewBox="0 0 20 12" fill="none" xmlns="http://www.w3.org/2000/svg">
<path d="M19.5821 11.5642C19.3144 11.8318 18.9514 11.9822 18.573 11.9822C18.1945 11.9822 17.8315 11.8318 17.5638 11.5642L10.0089 4.00934L2.45401 11.5642C2.32234 11.7006 2.16484 11.8093 1.9907 11.8841C1.81656 11.9589 1.62927 11.9983 1.43974 11.9999C1.25022 12.0016 1.06227 11.9655 0.886858 11.8937C0.711443 11.8219 0.552077 11.716 0.41806 11.5819C0.284044 11.4479 0.178058 11.2886 0.10629 11.1131C0.034522 10.9377 -0.00159184 10.7498 5.50681e-05 10.5603C0.00170197 10.3707 0.0410784 10.1834 0.115884 10.0093C0.190689 9.83516 0.299425 9.67766 0.435751 9.54599L8.99979 0.981947C9.26746 0.714363 9.63044 0.564042 10.0089 0.564042C10.3874 0.564042 10.7504 0.714363 11.0181 0.981948L19.5821 9.54599C19.8497 9.81366 20 10.1766 20 10.5551C20 10.9336 19.8497 11.2966 19.5821 11.5642Z" fill="white"/>
</svg>
