<svg width="485" height="928" viewBox="0 0 485 928" fill="none" xmlns="http://www.w3.org/2000/svg">
<rect width="485" height="928" fill="black"/>
<path d="M163.212 -15L146.425 101.094L143.501 232.494V274.104L133.291 302.577L129.601 341.991L133.291 372.65L123.79 402.58L128.171 409.887H143.492L128.9 421.558L126.714 437.621L131.815 470.476L123.79 495.295V519.384L112.851 541.97L120.885 570.442L133.291 578.469L159.559 573.367L183.642 565.331L193.133 556.575L190.2 569.75L175.608 574.133L171.919 585.813L157.327 593.111L142.726 604.792L141.315 611.361L147.882 620.845H161.017L171.965 626.686L193.133 623.77L209.911 617.93L225.969 614.239L219.402 620.08L196.776 630.302L169.41 633.993L145.004 624.499L127.48 612.09C127.48 612.09 118.717 617.93 118.717 620.845C118.717 623.761 122.407 644.206 122.407 644.206L123.79 655.887L104.089 662.456L92.4302 653.7L72 662.456L75.6433 689.47L104.098 696.048L179.989 707L230.35 693.161L284.354 670.538L316.461 665.427L339.815 628.927L372.651 594.615L397.462 588.046L428.168 564.639L452.979 539.82L477.791 493.099L491.626 447.89L505 428.912V-15H163.212Z" stroke="white" stroke-opacity="0.5" stroke-width="5" stroke-miterlimit="10"/>
<g clip-path="url(#clip0_601_3409)">
<path d="M95.9198 619C96.9646 619.178 98.021 619.301 99.0513 619.541C106.825 621.35 112.736 627.85 113.822 635.695C114.353 639.54 113.652 643.21 112.344 646.801C110.673 651.393 108.224 655.583 105.476 659.601C102.728 663.618 99.8761 667.548 97.0717 671.518C96.6578 672.103 96.2715 672.709 95.8432 673.284C95.1384 674.231 93.8563 674.248 93.182 673.284C89.4008 667.875 85.5631 662.502 81.8948 657.02C79.387 653.273 77.3583 649.258 76.053 644.92C74.5452 639.906 74.5234 634.946 76.8634 630.172C79.9022 623.959 84.9293 620.291 91.8304 619.198L93.1039 619.001L95.9198 619ZM84.7629 638.333C84.7687 640.895 85.7981 643.351 87.6259 645.162C89.4536 646.973 91.9307 647.992 94.5147 647.996C97.0991 647.992 99.5761 646.971 101.403 645.158C103.229 643.345 104.257 640.889 104.259 638.326C104.255 635.764 103.226 633.308 101.397 631.497C99.5694 629.686 97.0916 628.668 94.5075 628.666C91.9236 628.671 89.447 629.691 87.6205 631.503C85.7939 633.315 84.7664 635.771 84.7629 638.333Z" fill="#ED1C24"/>
<path d="M94.5294 644.774C92.8054 644.774 91.1517 644.096 89.931 642.889C88.7103 641.682 88.0222 640.044 88.0176 638.335C88.0203 636.624 88.7075 634.985 89.9284 633.776C91.1494 632.567 92.8041 631.888 94.5294 631.888C96.2432 631.896 97.8847 632.574 99.0981 633.774C100.311 634.974 100.999 636.6 101.011 638.299C101.016 640.009 100.336 641.652 99.121 642.866C97.9058 644.08 96.2544 644.766 94.5294 644.774Z" fill="white"/>
</g>
<path d="M510.074 568C492.761 576 449.477 600 414.851 632C380.224 664 322.512 696 297.985 708L209.254 746C194.105 768.667 175.06 813.2 220.075 810C265.09 806.8 321.07 788.667 343.433 780L414.851 796L449.478 832L510.074 870L575 854M510.074 652L484.105 632L414.851 670L369.403 708L326.12 734L263.359 758C254.702 766 260.546 789.617 326.12 758C375.896 734 409.441 720 436.493 722L464.627 734C477.612 743 484.105 780 499.254 806M523.06 696C514.403 688.667 492.328 675.2 473.284 680C449.478 686 458.135 698 484.105 722C504.88 741.2 518.731 768.667 523.06 780" stroke="white" stroke-opacity="0.2" stroke-width="6"/>
<path d="M362.285 83L408 144.014L318.653 233.5L314.494 315.532L344.277 340.611L267.396 425.35L271.545 536.531L254.929 582.627L240.38 595.514L265.312 655.842L184.273 685L97 672.79" stroke="#ED1C24" stroke-width="7" stroke-miterlimit="10" stroke-linecap="round"/>
<circle cx="363" cy="83" r="29" fill="#ED1C24" fill-opacity="0.3"/>
<circle cx="363.5" cy="82.5" r="14.5" fill="#ED1C24"/>
<path d="M371 75V88H366.397L366.652 82.3288L364.151 88H361.082L360.206 82.2429L358.723 87.9893H354L357.861 75H362.864L363.642 80.2809L365.877 75H371Z" fill="white"/>
<path d="M462 939C470 936.667 473.2 922.4 422 884C358 836 337 803 288 825C239 847 208 878 170 865C132 852 104 839 76 865C53.6 885.8 18.6667 923 4 939M412 939C414.667 926 409.8 898.4 369 892C328.2 885.6 287.333 894.667 275 900C213 900 227 876 164 884C101 892 90 891 83 910C77.4 925.2 59.3333 931.667 51 933" stroke="white" stroke-opacity="0.2" stroke-width="6"/>
<path d="M137.226 750.83C137.226 750.83 101.194 766.629 73 763.975V769.414H132.801L137.226 750.83Z" fill="white"/>
<path d="M101.994 708C101.994 708 97.7065 710.033 95.2454 709.393C92.7843 708.752 89.9551 708.895 89.2249 709.462C88.4947 710.029 89.2249 716.507 89.2249 716.507C89.2249 716.507 91.7795 715.686 93.9681 716.507C96.1566 717.329 102.086 716.507 101.994 713.953C101.902 711.398 101.994 708 101.994 708Z" fill="#ED1C24"/>
<path d="M114.052 757.151C111.901 757.023 104.701 728.7 104.701 728.7H103.456C103.119 731.214 102.725 734.302 102.411 737.231H104.033V739.047H102.224C102.127 740.042 102.043 741.009 101.977 741.9H104.033V743.717H101.87C101.858 743.98 101.85 744.232 101.844 744.471C101.828 745.124 101.844 745.83 101.876 746.572H104.743V748.386H101.999C102.079 749.318 102.186 750.281 102.308 751.241H104.743V753.056H102.554C102.952 755.768 103.43 758.322 103.77 760.019C108.937 758.812 115.369 757.228 114.052 757.151Z" fill="white"/>
<path d="M100.876 744.475C100.971 740.621 101.835 733.584 102.489 728.704H102.47V716.692H100.826C102.091 720.359 85.9043 750.83 85.9043 750.83L96.7773 761.408C96.7773 761.408 99.5369 760.789 102.798 760.025C102.08 756.456 100.749 749.105 100.876 744.475Z" fill="white"/>
<path d="M95.4481 711.267L95.9236 712.23L96.986 712.383L96.2161 713.133L96.3971 714.192L95.4481 713.692L94.4971 714.192L94.6781 713.133L93.9102 712.383L94.9726 712.23L95.4481 711.267Z" fill="#FFF3D9"/>
<defs>
<clipPath id="clip0_601_3409">
<rect width="39" height="55" fill="white" transform="translate(75 619)"/>
</clipPath>
</defs>
</svg>
