<svg width="56" height="50" viewBox="0 0 56 50" fill="none" xmlns="http://www.w3.org/2000/svg">
<g clip-path="url(#clip0_253_2681)">
<path d="M29.6085 12.2886L42.1636 12.2827L37.6593 0L25.1062 0.0077788L29.6085 12.2886Z" fill="#FEF8E6"/>
<path d="M4.50201 12.3041L17.0552 12.2963L12.5529 0.0136108L-0.00028801 0.0213896L4.50201 12.3041Z" fill="#FEF8E6"/>
<path d="M21.5596 24.5771L34.1128 24.5713L29.6086 12.2886L17.0554 12.2964L21.5596 24.5771Z" fill="#FEF8E6"/>
<path d="M38.6148 36.8521L51.1699 36.8463L46.6657 24.5635L34.1125 24.5713L38.6148 36.8521Z" fill="#FEF8E6"/>
<path d="M13.5088 36.8677L26.062 36.8599L21.5597 24.5771L9.00654 24.5849L13.5088 36.8677Z" fill="#FEF8E6"/>
<path d="M30.566 49.1407L43.1191 49.1348L38.6149 36.8521L26.0617 36.8599L30.566 49.1407Z" fill="#FEF8E6"/>
</g>
<defs>
<clipPath id="clip0_253_2681">
<rect width="55.6726" height="49.1484" fill="white" transform="matrix(-1 0 0 1 55.6724 0)"/>
</clipPath>
</defs>
</svg>
