<svg width="32" height="32" viewBox="0 0 32 32" fill="none" xmlns="http://www.w3.org/2000/svg">
<g clip-path="url(#clip0_1001_5076)">
<path d="M16.0005 32.001C24.8103 32.001 31.9848 24.8331 32.001 16.0176C32.0172 7.20212 24.8236 0 16.0005 0C7.17739 0 0.0162182 7.16783 2.72672e-05 15.9824C-0.0161637 24.7969 7.18024 32.001 16.0005 32.001Z" fill="white"/>
<path d="M16.0005 32.001C7.18024 32.001 -0.0152144 24.7969 2.41596e-05 15.9824C0.0152627 7.16783 7.19071 0 16.0005 0C24.8103 0 32.0172 7.20021 32.001 16.0176C31.9848 24.835 24.8103 32.001 16.0005 32.001ZM16.0005 4.57156C9.70698 4.57156 4.57826 9.69838 4.57159 15.9929C4.56492 22.2873 9.68984 27.4218 15.9843 27.4294C22.2788 27.437 27.437 22.295 27.4294 15.989C27.4218 9.68315 22.2931 4.57156 16.0005 4.57156Z" fill="#ED1C24"/>
<path d="M21.0236 23.5998C18.2674 25.5303 14.2149 25.7217 11.1348 23.7064L14.0749 20.1339C15.4739 20.7635 16.8368 20.7054 18.1969 19.9901C19.1369 21.1892 20.0722 22.3816 21.0236 23.5998Z" fill="#ED1C24"/>
<path d="M9.38528 22.2331C7.07378 20.0044 6.32328 16.2129 7.24426 13.5576L10.1272 14.7738C10.5082 14.9357 10.8977 15.0881 11.2749 15.2624C11.3606 15.3024 11.4777 15.4252 11.4653 15.4957C11.3339 16.6672 11.632 17.7148 12.313 18.6796C11.3333 19.8701 10.3574 21.0546 9.38528 22.2331Z" fill="#ED1C24"/>
<path d="M24.7628 13.5604C25.6199 16.0652 25.0542 19.6777 22.7627 22.1035L19.875 18.4148C20.415 17.5053 20.6665 16.5605 20.5341 15.5252C20.5359 15.4779 20.5493 15.4317 20.5731 15.3908C20.5968 15.3498 20.6302 15.3152 20.6703 15.29C22.0265 14.7071 23.3922 14.1347 24.7628 13.5604Z" fill="#ED1C24"/>
<path d="M23.9176 11.4289L22.3242 12.1013C21.5032 12.448 20.6813 12.7909 19.8622 13.1423C19.7022 13.2118 19.5956 13.2233 19.4679 13.0671C18.9173 12.4039 18.1882 11.9125 17.3669 11.6508C17.2783 11.6203 17.1536 11.5099 17.1536 11.4356C17.1402 9.94982 17.1441 8.46406 17.1441 6.93259C20.1061 7.37927 22.3223 8.87455 23.9176 11.4289Z" fill="#ED1C24"/>
<path d="M12.3815 13.2385L8.0957 11.4289C9.67385 8.87645 11.8968 7.39165 14.8388 6.93068C14.8492 7.03163 14.8654 7.11069 14.8654 7.19069C14.8654 8.55835 14.8654 9.92696 14.8607 11.2956C14.8607 11.4061 14.8083 11.5956 14.7397 11.6165C13.8067 11.9041 12.9839 12.4701 12.3815 13.2385Z" fill="#ED1C24"/>
<path d="M18.2864 16.0005C18.2847 16.6078 18.042 17.1896 17.6116 17.6182C17.1813 18.0468 16.5985 18.287 15.9911 18.2863C15.3836 18.282 14.8027 18.0367 14.3759 17.6044C13.9491 17.1721 13.7113 16.588 13.7149 15.9805C13.7216 15.3795 13.9642 14.8052 14.3903 14.3814C14.8165 13.9576 15.392 13.7182 15.993 13.7147C16.2939 13.7137 16.5919 13.7721 16.8701 13.8865C17.1483 14.0009 17.4012 14.1691 17.6143 14.3815C17.8273 14.5938 17.9964 14.8462 18.1117 15.124C18.2271 15.4018 18.2864 15.6997 18.2864 16.0005Z" fill="#ED1C24"/>
</g>
<defs>
<clipPath id="clip0_1001_5076">
<rect width="32" height="32" fill="white"/>
</clipPath>
</defs>
</svg>
