<svg width="72" height="20" viewBox="0 0 72 20" fill="none" xmlns="http://www.w3.org/2000/svg">
<path id="Exclude" fill-rule="evenodd" clip-rule="evenodd" d="M0.679688 0H71.0029V19.2822H0.679688V0ZM20.4159 16.0726V3.20959H15.4402L13.2685 8.43488L12.5127 3.20959H7.65361L3.90332 16.062H8.49054L9.93133 10.3762L10.7824 16.0726H13.7628L16.1924 10.4612L15.9452 16.0726H20.4159ZM45.4458 7.28709L43.44 7.20561L42.4089 16.062H37.5462L38.6551 7.22332L36.8082 7.28709L33.7041 3.20605H45.8696L45.4458 7.28709ZM50.7465 11.191L51.654 3.20606H46.9044L45.9438 11.2477C45.8888 11.9186 45.9534 12.594 46.1345 13.2422C46.6678 14.9249 48.5535 15.9983 50.1991 16.3029C52.272 16.5863 54.4155 16.4092 56.0223 15.2402C56.538 14.8528 56.9722 14.367 57.3001 13.8108C57.628 13.2545 57.843 12.6387 57.9327 11.9987L58.918 3.19543H54.2743L53.1901 11.1272C53.1387 11.5035 52.9649 11.8521 52.6957 12.1192C52.516 12.2758 52.297 12.3804 52.0625 12.4216C51.8279 12.4628 51.5866 12.4391 51.3644 12.353C51.1598 12.2407 50.9923 12.071 50.8825 11.8645C50.7727 11.6581 50.7254 11.424 50.7465 11.191ZM63.9715 11.9952H67.7889L66.6624 16.062H58.5332L60.2212 3.20605H65.0556L63.9715 11.9952ZM27.7389 7.44602C28.1903 7.21929 28.7 7.13664 29.1996 7.20916C29.5268 7.26804 29.8359 7.40193 30.103 7.60041C30.3701 7.79889 30.5878 8.05659 30.7393 8.3534C30.9474 8.78724 31.0451 9.26609 31.0235 9.74707C31.0019 10.2281 30.8618 10.6962 30.6157 11.1095C30.3855 11.5026 30.0491 11.8222 29.6454 12.0316C29.2417 12.241 28.7872 12.3315 28.3344 12.2927C27.9686 12.2563 27.6176 12.1291 27.313 11.9225C27.0085 11.7159 26.76 11.4365 26.59 11.1095C26.3798 10.6997 26.2774 10.243 26.2922 9.78244C26.307 9.32187 26.4387 8.87271 26.6747 8.47739C26.9161 8.03266 27.2875 7.67274 27.7389 7.44602ZM32.6215 4.03856L32.1377 3.66659L32.1236 3.68076C31.057 3.1853 29.8948 2.93132 28.7194 2.93683C27.3262 2.87891 25.9474 3.23849 24.7587 3.96973C23.57 4.70096 22.6254 5.77074 22.0451 7.04266C21.0563 9.38429 21.4413 12.4274 23.3376 14.2341C25.4776 16.3419 29.1325 16.9477 31.8623 15.6511C32.9799 15.1388 33.9343 14.3262 34.62 13.3033C35.3056 12.2804 35.6956 11.087 35.7467 9.85546C35.8251 9.12365 35.722 8.38376 35.4466 7.70157L32.6215 4.03856Z" fill="white"/>
</svg>
