<svg width="282" height="78" viewBox="0 0 282 78" fill="none" xmlns="http://www.w3.org/2000/svg">
<path fill-rule="evenodd" clip-rule="evenodd" d="M0.707031 0H282V77.1287H0.707031V0ZM79.6545 64.2905V12.8383H59.7518L51.0647 33.7394L48.0419 12.8383H28.6054L13.6042 64.248H31.9531L37.7162 41.5047L41.1205 64.2905H53.0423L62.7606 41.8448L61.7718 64.2905H79.6545ZM179.774 29.1482L171.751 28.8223L167.626 64.248H148.175L152.611 28.8932L145.223 29.1482L132.807 12.8241H181.469L179.774 29.1482ZM200.976 44.7639L204.607 12.8241H185.608L181.766 44.9906C181.546 47.6742 181.804 50.3757 182.529 52.9684C184.662 59.6993 192.204 63.9929 198.787 65.2115C207.079 66.3451 215.653 65.6366 222.08 60.9605C224.142 59.4111 225.879 57.468 227.191 55.2429C228.502 53.0177 229.362 50.5544 229.722 47.9947L233.662 12.7816H215.088L210.751 44.5088C210.545 46.0136 209.85 47.4083 208.774 48.4765C208.054 49.1031 207.179 49.5213 206.24 49.6861C205.302 49.8509 204.337 49.756 203.448 49.4117C202.63 48.9628 201.96 48.2837 201.521 47.458C201.081 46.6323 200.892 45.6959 200.976 44.7639ZM253.874 47.9805H269.144L264.638 64.248H232.121L238.873 12.8241H258.211L253.874 47.9805ZM108.943 29.7839C110.749 28.877 112.788 28.5464 114.786 28.8365C116.095 29.072 117.331 29.6076 118.4 30.4015C119.468 31.1954 120.339 32.2262 120.945 33.4135C121.777 35.1488 122.168 37.0642 122.082 38.9882C121.995 40.9121 121.435 42.7846 120.45 44.4379C119.529 46.0101 118.184 47.2888 116.569 48.1263C114.954 48.9638 113.137 49.3259 111.325 49.1708C109.862 49.0251 108.458 48.5161 107.24 47.6898C106.021 46.8635 105.027 45.7459 104.347 44.4379C103.507 42.7988 103.097 40.9719 103.156 39.1296C103.216 37.2874 103.742 35.4907 104.686 33.9094C105.652 32.1305 107.138 30.6908 108.943 29.7839ZM128.474 16.1541L126.538 14.6662L126.482 14.7229C122.215 12.741 117.567 11.7252 112.865 11.7472C107.292 11.5155 101.777 12.9538 97.0225 15.8788C92.2678 18.8037 88.4891 23.0828 86.1681 28.1705C82.2129 37.537 83.7527 49.7093 91.338 56.9361C99.898 65.3674 114.518 67.7905 125.437 62.6042C129.907 60.5552 133.725 57.3048 136.467 53.2131C139.21 49.1214 140.77 44.348 140.975 39.4217C141.288 36.4945 140.876 33.5349 139.774 30.8061L128.474 16.1541Z" fill="white"/>
</svg>
