<svg width="33" height="33" viewBox="0 0 33 33" fill="none" xmlns="http://www.w3.org/2000/svg">
<rect width="32.2956" height="32.2957" rx="16.1478" fill="white"/>
<path d="M11.1553 23.2439C10.5744 23.8248 9.63264 23.8248 9.05176 23.2439C8.47089 22.663 8.47089 21.7213 9.05176 21.1404L21.1403 9.05184C21.7212 8.47096 22.6629 8.47096 23.2438 9.05183C23.8247 9.6327 23.8247 10.5745 23.2438 11.1554L11.1553 23.2439ZM23.2439 23.2439C22.663 23.8248 21.7212 23.8248 21.1403 23.2439L9.05179 11.1553C8.47092 10.5744 8.47092 9.63264 9.0518 9.05177C9.63267 8.47089 10.5745 8.47089 11.1553 9.05177L23.2439 21.1403C23.8247 21.7212 23.8248 22.663 23.2439 23.2439Z" fill="#58595B"/>
</svg>
