<svg width="33" height="28" viewBox="0 0 33 28" fill="none" xmlns="http://www.w3.org/2000/svg">
<g clip-path="url(#clip0_301_972)">
<path d="M15.3485 7.00083L8.1958 6.99751L10.7619 0L17.9134 0.00443161L15.3485 7.00083Z" fill="#580006"/>
<path d="M29.6521 7.00975L22.5005 7.00532L25.0655 0.0078125L32.217 0.0122441L29.6521 7.00975Z" fill="#580006"/>
<path d="M19.9343 14.0016L12.7827 13.9982L15.3488 7.00073L22.5004 7.00516L19.9343 14.0016Z" fill="#580006"/>
<path d="M10.2176 20.9947L3.06494 20.9914L5.63102 13.9939L12.7826 13.9983L10.2176 20.9947Z" fill="#580006"/>
<path d="M24.5207 21.0036L17.3691 20.9992L19.9341 14.0017L27.0857 14.0061L24.5207 21.0036Z" fill="#580006"/>
<path d="M14.8029 27.9955L7.65137 27.9921L10.2174 20.9946L17.369 20.9991L14.8029 27.9955Z" fill="#580006"/>
</g>
<defs>
<clipPath id="clip0_301_972">
<rect width="31.7168" height="28" fill="white" transform="translate(0.5)"/>
</clipPath>
</defs>
</svg>
