<?xml version="1.0" encoding="UTF-8" standalone="no"?><!DOCTYPE svg PUBLIC "-//W3C//DTD SVG 1.1//EN" "http://www.w3.org/Graphics/SVG/1.1/DTD/svg11.dtd"><svg width="100%" height="100%" viewBox="0 0 80 21" version="1.1" xmlns="http://www.w3.org/2000/svg" xmlns:xlink="http://www.w3.org/1999/xlink" xml:space="preserve" xmlns:serif="http://www.serif.com/" style="fill-rule:evenodd;clip-rule:evenodd;stroke-linejoin:round;stroke-miterlimit:2;"><rect id="Artboard1" x="0" y="0" width="80" height="21" style="fill:none;"/><clipPath id="_clip1"><rect x="0" y="0" width="80" height="21"/></clipPath><g clip-path="url(#_clip1)"><g><rect x="-0" y="-0.5" width="80" height="22" style="fill:#ed1c24;fill-rule:nonzero;"/><path d="M22.453,3.162l-0,14.676l-5.086,0l0.281,-6.402l-2.764,6.402l-3.391,0l-0.968,-6.499l-1.639,6.487l-5.218,-0l4.266,-14.664l5.528,-0l0.86,5.962l2.47,-5.962l5.661,-0Z" style="fill:#fff;fill-rule:nonzero;"/><path d="M50.927,7.814l-2.282,-0.093l-1.173,10.105l-5.532,-0l1.262,-10.085l-2.101,0.073l-3.532,-4.656l13.84,-0l-0.482,4.656Z" style="fill:#fff;fill-rule:nonzero;"/><path d="M57.989,3.158l-1.032,9.11c-0.024,0.266 0.03,0.533 0.155,0.769c0.125,0.235 0.315,0.429 0.548,0.557c0.253,0.098 0.527,0.125 0.794,0.078c0.267,-0.047 0.516,-0.166 0.72,-0.345c0.307,-0.304 0.504,-0.702 0.563,-1.131l1.233,-9.05l5.283,-0l-1.121,10.044c-0.102,0.73 -0.347,1.433 -0.72,2.067c-0.373,0.635 -0.867,1.189 -1.453,1.631c-1.828,1.334 -4.267,1.536 -6.625,1.213c-1.872,-0.348 -4.017,-1.572 -4.624,-3.492c-0.206,-0.74 -0.279,-1.51 -0.217,-2.276l1.093,-9.175l5.403,-0Z" style="fill:#fff;fill-rule:nonzero;"/><path d="M72.002,13.186l4.342,-0l-1.281,4.64l-9.248,-0l1.92,-14.668l5.5,-0l-1.233,10.028Z" style="fill:#fff;fill-rule:nonzero;"/><path d="M32.443,7.725c-0.568,-0.082 -1.148,0.012 -1.661,0.27c-0.514,0.259 -0.936,0.67 -1.211,1.177c-0.268,0.451 -0.418,0.964 -0.435,1.489c-0.017,0.526 0.1,1.047 0.339,1.514c0.193,0.373 0.476,0.692 0.822,0.928c0.347,0.236 0.746,0.381 1.162,0.422c0.515,0.045 1.032,-0.059 1.492,-0.298c0.459,-0.239 0.841,-0.603 1.103,-1.052c0.28,-0.471 0.44,-1.005 0.464,-1.554c0.025,-0.549 -0.086,-1.095 -0.323,-1.59c-0.172,-0.339 -0.42,-0.633 -0.724,-0.859c-0.304,-0.227 -0.655,-0.38 -1.028,-0.447Zm3.343,-4.042l0.55,0.425l3.214,4.179c0.313,0.778 0.431,1.623 0.341,2.457c-0.058,1.406 -0.501,2.767 -1.281,3.934c-0.78,1.167 -1.866,2.095 -3.138,2.679c-3.105,1.479 -7.263,0.788 -9.697,-1.617c-2.157,-2.061 -2.595,-5.533 -1.471,-8.205c0.661,-1.451 1.735,-2.671 3.087,-3.506c1.353,-0.834 2.921,-1.244 4.506,-1.178c1.337,-0.007 2.659,0.283 3.873,0.849" style="fill:#fff;fill-rule:nonzero;"/></g></g></svg>