<svg width="27" height="27" viewBox="0 0 27 27" fill="none" xmlns="http://www.w3.org/2000/svg">
<circle cx="13.5" cy="13.5" r="13.5" fill="#ED1C24"/>
<path d="M12.5699 5H18.5698C18.8233 5.12338 18.8997 5.32835 18.8993 5.60457C18.8937 10.3082 18.8937 15.0119 18.8993 19.7158C18.8993 19.9944 18.8074 20.1866 18.5411 20.2833H7.79382C7.54547 20.1874 7.44199 20.0071 7.44238 19.7405C7.44557 16.3627 7.44769 12.985 7.44875 9.60729C7.45284 9.52145 7.48741 9.43987 7.54626 9.37724C8.25232 8.66084 8.9743 7.96314 9.66921 7.23718C9.89687 6.99838 10.1233 6.85549 10.4549 6.91559C10.552 6.9331 10.6204 6.88773 10.6885 6.81927C11.1961 6.30665 11.7062 5.79667 12.2188 5.28935C12.3263 5.18308 12.4525 5.09592 12.5699 5ZM9.3341 16.9401C9.37031 17.1459 9.4722 17.3031 9.64255 17.3684C9.83399 17.442 10.0039 17.399 10.148 17.2553C10.546 16.8573 10.9404 16.4593 11.342 16.0661C11.4049 16.0079 11.4861 15.9736 11.5717 15.969C12.6359 15.9626 13.7005 15.9626 14.7653 15.969C14.8509 15.9735 14.9322 16.008 14.9949 16.0665C15.3929 16.4514 15.7798 16.8434 16.1682 17.2354C16.2757 17.3437 16.3975 17.4129 16.5515 17.401C16.7362 17.3875 16.8731 17.2955 16.9388 17.12C17.008 16.9349 16.9674 16.767 16.8281 16.6269C16.4349 16.2321 16.0424 15.8368 15.6452 15.446C15.6071 15.4119 15.5769 15.3699 15.5569 15.3228C15.5369 15.2758 15.5275 15.2249 15.5294 15.1738C15.5342 14.2237 15.5457 13.2733 15.5246 12.3237C15.5175 12.0005 15.5963 11.7665 15.843 11.5487C16.1897 11.2439 16.5033 10.9016 16.8285 10.5724C16.977 10.422 17.0104 10.2262 16.9272 10.0519C16.844 9.87753 16.6832 9.77326 16.4918 9.80749C16.3726 9.83159 16.2624 9.88821 16.1734 9.97106C15.7754 10.3535 15.3921 10.7512 14.9961 11.136C14.933 11.1939 14.8516 11.2278 14.766 11.2319C13.7015 11.238 12.637 11.238 11.5725 11.2319C11.4871 11.2269 11.4062 11.1923 11.3436 11.134C10.9615 10.7635 10.5874 10.3842 10.2113 10.0081C9.96294 9.76012 9.6911 9.72948 9.49489 9.93087C9.29867 10.1323 9.3325 10.3957 9.57449 10.6373C9.95418 11.017 10.3367 11.3935 10.7112 11.7796C10.7662 11.8389 10.7986 11.9157 10.8027 11.9965C10.8088 13.0661 10.8088 14.1355 10.8027 15.2048C10.7987 15.2858 10.7663 15.3627 10.7112 15.4221C10.3227 15.8201 9.92235 16.2086 9.53549 16.6098C9.44753 16.7013 9.40016 16.8295 9.33449 16.9401H9.3341ZM15.9262 5.89551C14.903 5.89551 13.9235 5.89551 12.944 5.89869C12.8918 5.90527 12.8435 5.92991 12.8075 5.96834C12.6005 6.16734 12.3991 6.3759 12.1938 6.57808C12.0899 6.68037 11.9808 6.77709 11.8479 6.90166C11.9187 6.91082 11.937 6.91519 11.9553 6.91519C12.9106 6.91519 13.8658 6.91519 14.821 6.91519C14.8645 6.91731 14.9074 6.90423 14.9424 6.87818C15.2624 6.56177 15.58 6.24217 15.9262 5.89551Z" fill="white"/>
<path d="M9.34977 6.26645L6.8117 8.80372C6.58126 8.58084 6.32853 8.35676 6.10087 8.1092C5.95082 7.94602 5.97351 7.70005 6.13351 7.53847C6.77429 6.89211 7.41786 6.24867 8.06422 5.60815C8.10431 5.56662 8.15236 5.53359 8.20549 5.51104C8.25862 5.48848 8.31575 5.47685 8.37347 5.47685C8.43119 5.47685 8.48832 5.48848 8.54145 5.51104C8.59458 5.53359 8.64263 5.56662 8.68272 5.60815C8.90839 5.82148 9.12809 6.04635 9.34977 6.26645Z" fill="white"/>
<path d="M11.707 15.0595V12.1434H14.6304V15.0595H11.707Z" fill="white"/>
</svg>
