<svg width="21" height="16" viewBox="0 0 21 16" fill="none" xmlns="http://www.w3.org/2000/svg">
<g clip-path="url(#clip0_1183_28)">
<path d="M10.4896 2.27743C7.422 2.27743 4.35219 2.27743 1.2802 2.27743C0.50307 2.27743 -0.0242676 1.78072 0.00348702 1.08862C0.0161209 0.809647 0.133182 0.545009 0.332311 0.345255C0.531441 0.145502 0.798683 0.0246326 1.08299 0.00572775C1.14654 0.00143341 1.21081 0.000717163 1.27435 0.000717163C7.42273 0.000717163 13.5716 0.000717163 19.7209 0.000717163C20.3885 0.000717163 20.834 0.324222 20.9706 0.897516C21.0058 1.05446 21.0065 1.21694 20.9728 1.37418C20.9391 1.53143 20.8716 1.67985 20.775 1.80964C20.6783 1.93943 20.5546 2.04761 20.412 2.12702C20.2695 2.20643 20.1113 2.25526 19.9481 2.27027C19.8298 2.27886 19.7114 2.27743 19.5931 2.27743H10.4896Z" fill="white"/>
<path d="M7.02342 6.86022C8.94506 6.86022 10.8667 6.85592 12.7883 6.86022C13.6356 6.86022 14.1892 7.58811 13.9424 8.34677C13.8716 8.56535 13.7348 8.7577 13.5499 8.89831C13.3651 9.03891 13.141 9.12114 12.9074 9.13407C12.8709 9.13407 12.8344 9.13765 12.7986 9.13765C8.93727 9.13765 5.07573 9.13765 1.21395 9.13765C0.661778 9.13765 0.238155 8.85136 0.0701663 8.38542C0.00628405 8.21497 -0.0147151 8.03194 0.00894805 7.85184C0.0326112 7.67174 0.100239 7.49989 0.206099 7.35086C0.311959 7.20182 0.45293 7.07999 0.61706 6.9957C0.781191 6.91141 0.96364 6.86715 1.14894 6.86666C2.19631 6.85163 3.24368 6.86165 4.28959 6.86165L7.02342 6.86022Z" fill="white"/>
<path d="M4.0835 15.9914C3.09017 15.9914 2.09758 16.0021 1.10499 15.9914C0.829184 15.9819 0.566238 15.8748 0.364818 15.6899C0.163397 15.505 0.0371416 15.2549 0.00941514 14.9858C-0.01958 14.7172 0.0492538 14.4472 0.203756 14.2235C0.358257 13.9998 0.58848 13.8368 0.853739 13.7634C0.959343 13.7363 1.06814 13.723 1.1773 13.724C3.1172 13.724 5.0571 13.724 6.997 13.724C7.25901 13.7185 7.51502 13.8012 7.72236 13.9583C7.92969 14.1153 8.07583 14.3373 8.1364 14.5872C8.26056 15.0882 8.02903 15.6335 7.55209 15.8554C7.34515 15.9455 7.12121 15.9921 6.89474 15.9921C5.95693 16.0064 5.01912 15.9979 4.08131 15.9979L4.0835 15.9914Z" fill="white"/>
</g>
<defs>
<clipPath id="clip0_1183_28">
<rect width="21" height="16" fill="white"/>
</clipPath>
</defs>
</svg>
