<svg width="93" height="93" viewBox="0 0 93 93" fill="none" xmlns="http://www.w3.org/2000/svg">
<g clip-path="url(#clip0_1483_16042)">
<path d="M46.5015 93.0028C72.1049 93.0028 92.9558 72.1713 93.0029 46.5512C93.0499 20.9312 72.1437 0 46.5015 0C20.8593 0 0.0471342 20.8315 7.92454e-05 46.4488C-0.0469757 72.0661 20.8676 93.0028 46.5015 93.0028Z" fill="#ED1C24"/>
<path d="M46.5015 93.0028C20.8676 93.0028 -0.0442168 72.0661 7.02139e-05 46.4488C0.0443572 20.8315 20.898 0 46.5015 0C72.1049 0 93.0499 20.9256 93.0028 46.5512C92.9558 72.1768 72.1049 93.0028 46.5015 93.0028ZM46.5015 13.2861C28.2109 13.2861 13.3056 28.1859 13.2862 46.4792C13.2668 64.7725 28.1611 79.6945 46.4544 79.7167C64.7477 79.7388 79.7389 64.7947 79.7167 46.4682C79.6946 28.1416 64.7892 13.2861 46.5015 13.2861Z" fill="white"/>
<path d="M61.0989 68.5868C53.0885 74.1974 41.3109 74.7537 32.3594 68.8968L40.904 58.5142C44.9701 60.3439 48.931 60.175 52.8836 58.0963C55.6156 61.5811 58.3337 65.0466 61.0989 68.5868Z" fill="white"/>
<path d="M27.2766 64.6148C20.5589 58.1378 18.3777 47.1186 21.0543 39.4016L29.4329 42.9363C30.54 43.4068 31.6721 43.8497 32.7682 44.3562C33.0173 44.4725 33.3578 44.8295 33.3218 45.0344C32.9398 48.4389 33.8062 51.4837 35.7853 54.2876C32.938 57.7475 30.1018 61.1899 27.2766 64.6148Z" fill="white"/>
<path d="M71.9668 39.4099C74.4579 46.6896 72.8138 57.1884 66.1541 64.2383L57.7617 53.5181C59.3311 50.8747 60.0619 48.1289 59.6771 45.1202C59.6826 44.9826 59.7215 44.8485 59.7905 44.7294C59.8594 44.6102 59.9564 44.5097 60.0729 44.4365C64.0145 42.7425 67.9837 41.079 71.9668 39.4099Z" fill="white"/>
<path d="M69.5113 33.2153L64.8805 35.1694C62.4945 36.177 60.1058 37.1734 57.7254 38.1948C57.2604 38.3968 56.9504 38.4301 56.5795 37.9761C54.9792 36.0489 52.8602 34.6206 50.4734 33.8602C50.216 33.7716 49.8534 33.4505 49.8534 33.2346C49.8146 28.9167 49.8257 24.5987 49.8257 20.1478C58.434 21.446 64.875 25.7917 69.5113 33.2153Z" fill="white"/>
<path d="M35.9831 38.4744L23.5273 33.2153C28.1138 25.7972 34.5742 21.482 43.1244 20.1423C43.1548 20.4357 43.2019 20.6654 43.2019 20.898C43.2019 24.8727 43.2019 28.8502 43.188 32.8278C43.188 33.1489 43.0358 33.6997 42.8365 33.7606C40.1249 34.5964 37.7336 36.2412 35.9831 38.4744Z" fill="white"/>
<path d="M53.1456 46.5014C53.1405 48.2665 52.4351 49.9574 51.1844 51.2029C49.9338 52.4484 48.2399 53.1467 46.4749 53.1445C44.7093 53.132 43.0209 52.4193 41.7805 51.1628C40.5401 49.9063 39.8492 48.2088 39.8595 46.4433C39.8791 44.6967 40.584 43.0277 41.8225 41.796C43.0609 40.5643 44.7337 39.8684 46.4804 39.8583C47.3546 39.8554 48.2209 40.0251 49.0294 40.3577C49.8379 40.6902 50.5729 41.1791 51.1921 41.7962C51.8113 42.4134 52.3026 43.1467 52.6378 43.9541C52.973 44.7615 53.1456 45.6272 53.1456 46.5014Z" fill="white"/>
</g>
<defs>
<clipPath id="clip0_1483_16042">
<rect width="93" height="93" fill="white"/>
</clipPath>
</defs>
</svg>
