<svg width="56" height="50" viewBox="0 0 56 50" fill="none" xmlns="http://www.w3.org/2000/svg">
<g clip-path="url(#clip0_250_2612)">
<path d="M26.0639 12.2886L13.5088 12.2827L18.013 0L30.5662 0.0077788L26.0639 12.2886Z" fill="#FEF8E6"/>
<path d="M51.1704 12.3041L38.6172 12.2963L43.1195 0.0136108L55.6727 0.0213896L51.1704 12.3041Z" fill="#FEF8E6"/>
<path d="M34.1127 24.5771L21.5596 24.5713L26.0638 12.2886L38.617 12.2964L34.1127 24.5771Z" fill="#FEF8E6"/>
<path d="M17.0575 36.8521L4.50244 36.8463L9.00668 24.5635L21.5598 24.5713L17.0575 36.8521Z" fill="#FEF8E6"/>
<path d="M42.1635 36.8677L29.6104 36.8599L34.1127 24.5771L46.6658 24.5849L42.1635 36.8677Z" fill="#FEF8E6"/>
<path d="M25.1064 49.1407L12.5532 49.1348L17.0575 36.8521L29.6106 36.8599L25.1064 49.1407Z" fill="#FEF8E6"/>
</g>
<defs>
<clipPath id="clip0_250_2612">
<rect width="55.6726" height="49.1484" fill="white"/>
</clipPath>
</defs>
</svg>
