<svg width="192" height="53" viewBox="0 0 192 53" fill="none" xmlns="http://www.w3.org/2000/svg">
<path fill-rule="evenodd" clip-rule="evenodd" d="M0.736816 0H191.263V52.0863H0.736816V0ZM54.2093 43.4164V8.6699H40.7288L34.8448 22.7848L32.7974 8.6699H19.6325L9.47191 43.3877H21.9L25.8036 28.0288L28.1093 43.4164H36.1842L42.7667 28.2585L42.0969 43.4164H54.2093ZM122.023 19.6843L116.589 19.4642L113.795 43.3877H100.621L103.625 19.512L98.6215 19.6843L90.2117 8.66032H123.172L122.023 19.6843ZM136.384 30.2298L138.843 8.66031H125.975L123.372 30.3829C123.223 32.1952 123.398 34.0196 123.889 35.7705C125.334 40.316 130.443 43.2155 134.901 44.0384C140.517 44.804 146.325 44.3255 150.678 41.1676C152.075 40.1213 153.252 38.8091 154.14 37.3064C155.028 35.8038 155.611 34.1403 155.854 32.4116L158.523 8.63161H145.942L143.005 30.0575C142.865 31.0738 142.395 32.0156 141.665 32.737C141.178 33.1602 140.585 33.4426 139.95 33.5539C139.314 33.6652 138.66 33.6011 138.059 33.3685C137.504 33.0654 137.05 32.6068 136.753 32.0492C136.455 31.4916 136.327 30.8592 136.384 30.2298ZM172.214 32.402H182.557L179.505 43.3877H157.48L162.054 8.66032H175.152L172.214 32.402ZM74.0461 20.1136C75.269 19.5011 76.6501 19.2779 78.0036 19.4738C78.89 19.6328 79.7276 19.9945 80.4512 20.5306C81.1748 21.0668 81.7647 21.7629 82.175 22.5647C82.7389 23.7366 83.0035 25.0301 82.9451 26.3293C82.8866 27.6286 82.507 28.8931 81.8402 30.0097C81.2164 31.0714 80.305 31.9349 79.2113 32.5005C78.1177 33.0661 76.8863 33.3106 75.6596 33.2058C74.6684 33.1074 73.7174 32.7637 72.8922 32.2057C72.0671 31.6477 71.3938 30.893 70.9333 30.0097C70.364 28.9028 70.0864 27.669 70.1266 26.4249C70.1668 25.1808 70.5234 23.9675 71.1629 22.8996C71.817 21.6983 72.8231 20.726 74.0461 20.1136ZM87.2745 10.9091L85.9638 9.90434L85.9254 9.9426C83.0357 8.60423 79.887 7.91817 76.7025 7.93305C72.928 7.77659 69.1923 8.74791 65.9719 10.7232C62.7514 12.6985 60.192 15.5882 58.6199 19.024C55.9411 25.3494 56.9839 33.5695 62.1217 38.4499C67.9195 44.1437 77.8218 45.7801 85.2175 42.2777C88.2454 40.8939 90.8314 38.6989 92.6889 35.9357C94.5464 33.1725 95.603 29.949 95.7417 26.6221C95.9539 24.6453 95.6746 22.6467 94.9285 20.8039L87.2745 10.9091Z" fill="white"/>
</svg>
