<svg width="9" height="12" viewBox="0 0 9 12" fill="none" xmlns="http://www.w3.org/2000/svg">
<path d="M0.625238 11.7345C0.712494 11.5386 0.769313 11.3979 0.835263 11.2613C1.50389 9.88862 2.16339 8.51174 2.84723 7.14633C3.27438 6.29268 3.2825 5.46719 2.84723 4.60938C2.15527 3.23459 1.49273 1.84312 0.818014 0.458946C0.756123 0.332828 0.703364 0.204622 0.626254 0.0326433C0.755109 0.0232626 0.848452 0.00971582 0.941796 0.00971582C2.51444 0.00971589 4.08709 0.00971621 5.65973 0.0034625C5.75104 -0.00870214 5.84367 0.0113943 5.9224 0.0604504C6.00113 0.109507 6.06128 0.184603 6.09297 0.273414C6.95133 2.05783 7.82694 3.83287 8.67921 5.62041C8.71181 5.70452 8.72787 5.79442 8.72648 5.88494C8.72509 5.97546 8.70626 6.0648 8.67109 6.14781C7.82355 7.92249 6.9635 9.69162 6.09094 11.4552C6.03108 11.5761 5.86671 11.722 5.74902 11.7231C4.06679 11.7397 2.38457 11.7345 0.625238 11.7345Z" fill="#656565"/>
</svg>
