<svg width="9" height="12" viewBox="0 0 9 12" fill="none" xmlns="http://www.w3.org/2000/svg">
<path d="M0.481683 11.7345C0.56894 11.5386 0.625759 11.3979 0.691708 11.2613C1.36034 9.88862 2.01983 8.51174 2.70368 7.14633C3.13083 6.29268 3.13895 5.46719 2.70368 4.60938C2.01171 3.23459 1.34917 1.84312 0.674459 0.458946C0.612568 0.332828 0.55981 0.204622 0.482699 0.0326433C0.611555 0.0232626 0.704897 0.00971582 0.798241 0.00971582C2.37089 0.00971589 3.94353 0.00971621 5.51618 0.0034625C5.60749 -0.00870214 5.70012 0.0113943 5.77885 0.0604504C5.85757 0.109507 5.91772 0.184603 5.94941 0.273414C6.80777 2.05783 7.68338 3.83287 8.53566 5.62041C8.56825 5.70452 8.58432 5.79442 8.58292 5.88494C8.58153 5.97546 8.56271 6.0648 8.52754 6.14781C7.68 7.92249 6.81995 9.69162 5.94739 11.4552C5.88752 11.5761 5.72316 11.722 5.60546 11.7231C3.92324 11.7397 2.24102 11.7345 0.481683 11.7345Z" fill="#fff"/>
</svg>
